<svg id="visual" viewBox="0 0 900 600" width="900" height="600" xmlns="http://www.w3.org/2000/svg" xmlns:xlink="http://www.w3.org/1999/xlink" version="1.1"><rect x="0" y="0" width="900" height="600" fill="#001220"></rect><path d="M633 0L628.5 16.7C624 33.3 615 66.7 610.2 100C605.3 133.3 604.7 166.7 622 200C639.3 233.3 674.7 266.7 697.3 300C720 333.3 730 366.7 705.7 400C681.3 433.3 622.7 466.7 583.5 500C544.3 533.3 524.7 566.7 514.8 583.3L505 600L0 600L0 583.3C0 566.7 0 533.3 0 500C0 466.7 0 433.3 0 400C0 366.7 0 333.3 0 300C0 266.7 0 233.3 0 200C0 166.7 0 133.3 0 100C0 66.7 0 33.3 0 16.7L0 0Z" fill="#fa7268"></path><path d="M514 0L511 16.7C508 33.3 502 66.7 478.7 100C455.3 133.3 414.7 166.7 401 200C387.3 233.3 400.7 266.7 425.8 300C451 333.3 488 366.7 509.2 400C530.3 433.3 535.7 466.7 514.3 500C493 533.3 445 566.7 421 583.3L397 600L0 600L0 583.3C0 566.7 0 533.3 0 500C0 466.7 0 433.3 0 400C0 366.7 0 333.3 0 300C0 266.7 0 233.3 0 200C0 166.7 0 133.3 0 100C0 66.7 0 33.3 0 16.7L0 0Z" fill="#ee4575"></path><path d="M282 0L294.3 16.7C306.7 33.3 331.3 66.7 331.5 100C331.7 133.3 307.3 166.7 306.7 200C306 233.3 329 266.7 342 300C355 333.3 358 366.7 374 400C390 433.3 419 466.7 415.5 500C412 533.3 376 566.7 358 583.3L340 600L0 600L0 583.3C0 566.7 0 533.3 0 500C0 466.7 0 433.3 0 400C0 366.7 0 333.3 0 300C0 266.7 0 233.3 0 200C0 166.7 0 133.3 0 100C0 66.7 0 33.3 0 16.7L0 0Z" fill="#d3108b"></path><path d="M223 0L243.2 16.7C263.3 33.3 303.7 66.7 322.8 100C342 133.3 340 166.7 315.8 200C291.7 233.3 245.3 266.7 235.8 300C226.3 333.3 253.7 366.7 257.2 400C260.7 433.3 240.3 466.7 231.5 500C222.7 533.3 225.3 566.7 226.7 583.3L228 600L0 600L0 583.3C0 566.7 0 533.3 0 500C0 466.7 0 433.3 0 400C0 366.7 0 333.3 0 300C0 266.7 0 233.3 0 200C0 166.7 0 133.3 0 100C0 66.7 0 33.3 0 16.7L0 0Z" fill="#a200a6"></path><path d="M107 0L126.7 16.7C146.3 33.3 185.7 66.7 189.7 100C193.7 133.3 162.3 166.7 143.7 200C125 233.3 119 266.7 129.7 300C140.3 333.3 167.7 366.7 176.8 400C186 433.3 177 466.7 179.8 500C182.7 533.3 197.3 566.7 204.7 583.3L212 600L0 600L0 583.3C0 566.7 0 533.3 0 500C0 466.7 0 433.3 0 400C0 366.7 0 333.3 0 300C0 266.7 0 233.3 0 200C0 166.7 0 133.3 0 100C0 66.7 0 33.3 0 16.7L0 0Z" fill="#4024be"></path></svg>